<svg xmlns="http://www.w3.org/2000/svg" xmlns:xlink="http://www.w3.org/1999/xlink" version="1.1" x="0px" y="0px" viewBox="-0.0002441 0 208 220" enable-background="new -0.0002441 0 208 0" xml:space="preserve"><g><path d="M75.673584,51.8432617v77.3061523h58.5283203V51.8432617L104.6130371,9.1660156L75.673584,51.8432617z    M109.7165527,68.1308594h15.4609375l-12.5097656,9.0883789l4.7783203,14.7036133l-12.5078125-9.0869141l-12.5097656,9.0869141   l4.7783203-14.7036133l-12.5068359-9.0883789h15.4599609l4.7783203-14.7041016L109.7165527,68.1308594z"/><polygon points="140.1755371,85.659668 140.1755371,129.1494141 173.1032715,129.1494141  "/><polygon points="69.7009277,129.1494141 69.7009277,85.659668 36.7731934,129.1494141  "/><path d="M81.3630371,139.5673828c-3.1347656,0-5.6757813,2.8388672-5.6757813,6.3417969v17.5585938   c0,3.5009766,2.5410156-7.0722656,5.6757813-7.0722656c3.1337891,0,5.6757813,10.5732422,5.6757813,7.0722656v-17.5585938   C87.0388184,142.40625,84.4968262,139.5673828,81.3630371,139.5673828z"/><path d="M97.0788574,139.5673828c-3.1337891,0-5.6748047,2.8388672-5.6748047,6.3417969v17.5585938   c0,3.5009766,2.5410156-7.0722656,5.6748047-7.0722656c3.1357422,0,5.6777344,10.5732422,5.6777344,7.0722656v-17.5585938   C102.7565918,142.40625,100.2145996,139.5673828,97.0788574,139.5673828z"/><path d="M112.7966309,139.5673828c-3.1337891,0-5.6767578,2.8388672-5.6767578,6.3417969v17.5585938   c0,3.5009766,2.5429688-7.0722656,5.6767578-7.0722656c3.1347656,0,5.6757813,10.5732422,5.6757813,7.0722656v-17.5585938   C118.4724121,142.40625,115.9313965,139.5673828,112.7966309,139.5673828z"/><path d="M128.5124512,139.5673828c-3.1328125,0-5.6748047,2.8388672-5.6748047,6.3417969v17.5585938   c0,3.5009766,2.5419922-7.0722656,5.6748047-7.0722656c3.1347656,0,5.6767578,10.5732422,5.6767578,7.0722656v-17.5585938   C134.189209,142.40625,131.6472168,139.5673828,128.5124512,139.5673828z"/></g></svg>