<?xml version="1.0"?>
<svg xmlns="http://www.w3.org/2000/svg" xmlns:xlink="http://www.w3.org/1999/xlink" version="1.1" id="Layer_1" x="0px" y="0px" viewBox="0 0 512 512" style="enable-background:new 0 0 512 512;" xml:space="preserve" width="512px" height="512px"><g><g>
	<g>
		<path d="M256,0c-28.122,0-51,22.878-51,51s22.878,51,51,51s51-22.878,51-51S284.122,0,256,0z M256,82c-17.093,0-31-13.907-31-31    s13.907-31,31-31s31,13.907,31,31S273.094,82,256,82z" data-original="#000000" class="active-path" data-old_color="#000000" fill="#202124"/>
	</g>
</g><g>
	<g>
		<path d="M412,171.031H274c-5.523,0-10,4.477-10,10v38c0,5.523,4.477,10,10,10h138c5.523,0,10-4.477,10-10v-38    C422,175.508,417.523,171.031,412,171.031z M402,209.031H284v-18h118V209.031z" data-original="#000000" class="active-path" data-old_color="#000000" fill="#202124"/>
	</g>
</g><g>
	<g>
		<path d="M411.826,246H304.659c-5.523,0-10,4.477-10,10s4.477,10,10,10h107.166c5.523,0,10.001-4.477,10.001-10    S417.349,246,411.826,246z" data-original="#000000" class="active-path" data-old_color="#000000" fill="#202124"/>
	</g>
</g><g>
	<g>
		<path d="M274.13,246H274c-5.523,0-10,4.477-10,10s4.477,10,10,10h0.131c5.523,0,9.999-4.477,9.999-10S279.653,246,274.13,246z" data-original="#000000" class="active-path" data-old_color="#000000" fill="#202124"/>
	</g>
</g><g>
	<g>
		<path d="M411.826,289.979H304.659c-5.523,0-10,4.477-10,10s4.477,10,10,10h107.166c5.523,0,10.001-4.477,10.001-10    S417.349,289.979,411.826,289.979z" data-original="#000000" class="active-path" data-old_color="#000000" fill="#202124"/>
	</g>
</g><g>
	<g>
		<path d="M274.13,289.979H274c-5.523,0-10,4.477-10,10s4.477,10,10,10h0.131c5.523,0,9.999-4.477,9.999-10    S279.653,289.979,274.13,289.979z" data-original="#000000" class="active-path" data-old_color="#000000" fill="#202124"/>
	</g>
</g><g>
	<g>
		<path d="M186.503,163.167h-0.164c-5.523,0-10,4.477-10,10s4.477,10,10,10h0.164c5.523,0,10-4.477,10-10    S192.026,163.167,186.503,163.167z" data-original="#000000" class="active-path" data-old_color="#000000" fill="#202124"/>
	</g>
</g><g>
	<g>
		<path d="M239.037,163.167h-20.5c-5.523,0-10,4.477-10,10s4.477,10,10,10h10.5v119.999H216.47l-30.577-58.422    c-1.617-3.089-4.726-5.113-8.205-5.341c-3.479-0.23-6.826,1.371-8.833,4.222l-20.275,28.803l-7.833-8.657    c-2.094-2.314-5.143-3.519-8.258-3.255c-3.11,0.263-5.918,1.963-7.594,4.596l-15.857,24.923V183.167h44.089    c5.523,0,10-4.477,10-10s-4.477-10-10-10h-54.09c-5.523,0-10,4.477-10,10v139.999c0,5.523,4.477,10,10,10h140    c5.523,0,10-4.477,10-10V173.167C249.037,167.645,244.56,163.167,239.037,163.167z M124.386,303.168l10.336-16.245l7.419,8.2    c2.039,2.253,4.987,3.457,8.025,3.272c3.033-0.186,5.817-1.74,7.567-4.225l18.04-25.627l18.122,34.625H124.386z" data-original="#000000" class="active-path" data-old_color="#000000" fill="#202124"/>
	</g>
</g><g>
	<g>
		<path d="M200.732,190.136c-13.233,0-24,10.767-24,24c0,13.233,10.767,24,24,24c13.234,0,24-10.767,24-24    C224.732,200.903,213.965,190.136,200.732,190.136z M200.732,218.136c-2.206,0-4-1.794-4-4s1.794-4,4-4s4,1.794,4,4    S202.938,218.136,200.732,218.136z" data-original="#000000" class="active-path" data-old_color="#000000" fill="#202124"/>
	</g>
</g><g>
	<g>
		<path d="M64,224.285c-5.523,0-10,4.477-10,10v0.102c0,5.523,4.477,10,10,10s10-4.477,10-10v-0.102    C74,228.762,69.523,224.285,64,224.285z" data-original="#000000" class="active-path" data-old_color="#000000" fill="#202124"/>
	</g>
</g><g>
	<g>
		<path d="M448,118H284V88.333c0-5.523-4.477-10-10-10s-10,4.477-10,10V118h-16V88.333c0-5.523-4.477-10-10-10s-10,4.477-10,10V118    H64.001c-5.523,0-10,4.477-10,10v81.925c0,5.523,4.477,10,10,10c5.523,0,10-4.477,10-10V138H438v218H74.001v-96.481    c0-5.523-4.477-10-10-10c-5.523,0-10,4.477-10,10V366c0,5.523,4.477,10,10,10H228v61.999h-58.22c-4.352,0-8.205,2.815-9.527,6.961    l-17.226,54.001c-0.97,3.041-0.43,6.362,1.453,8.938c1.883,2.577,4.883,4.101,8.074,4.101h206.893    c3.191,0,6.191-1.523,8.074-4.101c1.883-2.577,2.423-5.898,1.453-8.938l-17.226-54.001c-1.322-4.146-5.175-6.961-9.527-6.961H284    V376h164c5.523,0,10-4.477,10-10V128C458,122.477,453.523,118,448,118z M248,376h16v61.999h-16V376z M334.913,457.999L345.76,492    H166.24l10.846-34.001H334.913z" data-original="#000000" class="active-path" data-old_color="#000000" fill="#202124"/>
	</g>
</g></g> </svg>
