<?xml version="1.0" encoding="UTF-8" standalone="no"?>
<!DOCTYPE svg PUBLIC "-//W3C//DTD SVG 1.1//EN" "http://www.w3.org/Graphics/SVG/1.1/DTD/svg11.dtd">
<svg version="1.1" xmlns="http://www.w3.org/2000/svg" xmlns:xlink="http://www.w3.org/1999/xlink" preserveAspectRatio="xMidYMid meet" viewBox="0 0 640 640" width="640" height="640"><defs><path d="M407.86 375.71L237.6 375.71L237.6 150.82L321.78 26.66L407.86 150.82L407.86 375.71ZM263.86 198.2L300.24 224.64L286.34 267.41L322.73 240.98L359.12 267.41L345.22 224.64L381.61 198.2L336.63 198.2L322.73 155.42L308.83 198.2L263.86 198.2Z" id="c6tlfyvtc"></path><path d="M425.24 375.71L521.03 375.71L425.24 249.19L425.24 375.71Z" id="a1WAn7UAqF"></path><path d="M220.22 249.19L124.43 375.71L220.22 375.71L220.22 249.19Z" id="d3fcA9GZzP"></path><path d="M237.64 424.46C237.64 429.57 237.64 470.43 237.64 475.54C237.64 485.73 245.03 454.97 254.15 454.97C263.26 454.97 270.66 485.73 270.66 475.54C270.66 470.43 270.66 429.57 270.66 424.46C270.66 414.27 263.26 406.01 254.15 406.01C245.03 406.01 237.64 414.27 237.64 424.46Z" id="cUePd5O0s"></path><path d="M283.36 424.46C283.36 429.57 283.36 470.43 283.36 475.54C283.36 485.73 290.75 454.97 299.87 454.97C308.99 454.97 316.38 485.73 316.38 475.54C316.38 470.43 316.38 429.57 316.38 424.46C316.38 414.27 308.99 406.01 299.87 406.01C290.75 406.01 283.36 414.27 283.36 424.46Z" id="eLtP48xgq"></path><path d="M329.08 424.46C329.08 429.57 329.08 470.43 329.08 475.54C329.08 485.73 336.47 454.97 345.59 454.97C354.71 454.97 362.1 485.73 362.1 475.54C362.1 470.43 362.1 429.57 362.1 424.46C362.1 414.27 354.71 406.01 345.59 406.01C336.47 406.01 329.08 414.27 329.08 424.46Z" id="a2evaYAmmX"></path><path d="M374.8 424.46C374.8 429.57 374.8 470.43 374.8 475.54C374.8 485.73 382.2 454.97 391.31 454.97C400.43 454.97 407.82 485.73 407.82 475.54C407.82 470.43 407.82 429.57 407.82 424.46C407.82 414.27 400.43 406.01 391.31 406.01C382.2 406.01 374.8 414.27 374.8 424.46Z" id="b1SBYxeZAn"></path></defs><g><g><g><use xlink:href="#c6tlfyvtc" opacity="1" fill="#ffffff" fill-opacity="1"></use><g><use xlink:href="#c6tlfyvtc" opacity="1" fill-opacity="0" stroke="#000000" stroke-width="1" stroke-opacity="0"></use></g></g><g><use xlink:href="#a1WAn7UAqF" opacity="1" fill="#ffffff" fill-opacity="1"></use><g><use xlink:href="#a1WAn7UAqF" opacity="1" fill-opacity="0" stroke="#000000" stroke-width="1" stroke-opacity="0"></use></g></g><g><use xlink:href="#d3fcA9GZzP" opacity="1" fill="#ffffff" fill-opacity="1"></use><g><use xlink:href="#d3fcA9GZzP" opacity="1" fill-opacity="0" stroke="#000000" stroke-width="1" stroke-opacity="0"></use></g></g><g><use xlink:href="#cUePd5O0s" opacity="1" fill="#ffffff" fill-opacity="1"></use><g><use xlink:href="#cUePd5O0s" opacity="1" fill-opacity="0" stroke="#000000" stroke-width="1" stroke-opacity="0"></use></g></g><g><use xlink:href="#eLtP48xgq" opacity="1" fill="#ffffff" fill-opacity="1"></use><g><use xlink:href="#eLtP48xgq" opacity="1" fill-opacity="0" stroke="#000000" stroke-width="1" stroke-opacity="0"></use></g></g><g><use xlink:href="#a2evaYAmmX" opacity="1" fill="#ffffff" fill-opacity="1"></use><g><use xlink:href="#a2evaYAmmX" opacity="1" fill-opacity="0" stroke="#000000" stroke-width="1" stroke-opacity="0"></use></g></g><g><use xlink:href="#b1SBYxeZAn" opacity="1" fill="#ffffff" fill-opacity="1"></use><g><use xlink:href="#b1SBYxeZAn" opacity="1" fill-opacity="0" stroke="#000000" stroke-width="1" stroke-opacity="0"></use></g></g></g></g></svg>