<?xml version="1.0"?>
<svg xmlns="http://www.w3.org/2000/svg" xmlns:xlink="http://www.w3.org/1999/xlink" version="1.1" viewBox="0 0 295.82 295.82" enable-background="new 0 0 295.82 295.82" width="512px" height="512px"><g><g>
    <g>
      <path d="m261.018,113.108c0-2.958-1.201-5.255-3.132-6.787-1.01-1.914-2.193-3.759-3.828-5.394l-93.967-93.966c-1.444-0.974-3.063-1.914-4.733-2.802-1.427-2.54-4.002-4.159-7.448-4.159-1.01,0-1.897,0.244-2.749,0.487-1.392-0.261-2.802-0.487-4.211-0.487h-62.645c-24.361,0-43.503,19.141-43.503,43.503v208.814c0,24.362 19.141,43.503 43.503,43.503h139.21c24.362,0 43.503-19.141 43.503-43.503v-132.249c0-1.688-0.122-3.358-0.348-5.011 0.139-0.643 0.348-1.235 0.348-1.949zm-27.842-8.7h-50.463c-13.921,0-26.102-12.181-26.102-26.102v-50.463l76.565,76.565zm-15.661,174.012h-139.21c-13.921,0-26.102-12.181-26.102-26.102v-208.814c0-13.921 12.181-26.102 26.102-26.102h60.904v60.904c0,24.362 19.141,43.503 43.503,43.503h60.904v130.509c0.001,13.921-12.18,26.102-26.101,26.102z" data-original="#000000" class="active-path" data-old_color="#0016FF" fill="#333333"/>
      <path d="m179.232,167.052c-3.48-3.48-8.701-3.48-12.181,0l-20.011,20.011-20.011-20.011c-3.48-3.48-8.701-3.48-12.181,0s-3.48,8.701 0,12.181l20.011,20.011-20.011,20.011c-3.48,3.48-3.48,8.701 0,12.181 1.74,1.74 5.22,1.74 6.96,1.74s5.22-1.74 5.22-1.74l20.011-20.011 20.011,20.011c1.74,1.74 5.22,1.74 6.96,1.74 1.74,0 5.22-1.74 5.22-1.74 3.48-3.48 3.48-8.701 0-12.181l-20.011-20.011 20.011-20.011c3.483-3.48 3.483-8.701 0.002-12.181z" data-original="#000000" class="active-path" data-old_color="#0016FF" fill="#333333"/>
    </g>
  </g></g> </svg>
